# AST/ASF file generated using VICON BodyLanguage
# -----------------------------------------------
:version 1.10
:name VICON
:units
  mass 1.0
  length 0.45
  angle deg
:documentation
   .ast/.asf automatically generated from VICON data using
   VICON BodyBuilder and BodyLanguage model FoxedUp or BRILLIANT.MOD
:root
   order TX TY TZ RX RY RZ
   axis XYZ
   position 0 0 0  
   orientation 0 0 0 
:bonedata
  begin
     id 1 
     name lhipjoint
     direction 0.62366 -0.717238 0.310833 
     length 2.53602 
     axis 0 0 0  XYZ
  end
  begin
     id 2 
     name lfemur
     direction 0.34202 -0.939693 0  
     length 7.40817  
     axis 0 0 20  XYZ
    dof rx ry rz
    limits (-160.0 20.0)
           (-70.0 70.0)
           (-60.0 70.0)
  end
  begin
     id 3 
     name ltibia
     direction 0.34202 -0.939693 0   
     length 7.7045   
     axis 0 0 20   XYZ
    dof rx
    limits (-10.0 170.0)
  end
  begin
     id 4 
     name lfoot
     direction 0.0673888 -0.185149 0.980397   
     length 2.09456   
     axis -90 7.62852e-016 20   XYZ
    dof rx rz
    limits (-45.0 90.0)
           (-70.0 20.0)
  end
  begin
     id 5 
     name ltoes
     direction 1.53575e-011 -4.21994e-011 1   
     length 1.05543   
     axis -90 7.62852e-016 20   XYZ
    dof rx
    limits (-90.0 20.0)
  end
  begin
     id 6 
     name rhipjoint
     direction -0.489018 -0.800347 0.346851   
     length 2.27268  
     axis 0 0 0  XYZ 
  end
  begin
     id 7 
     name rfemur
     direction -0.34202 -0.939693 0   
     length 7.55487   
     axis 0 0 -20   XYZ
    dof rx ry rz
    limits (-160.0 20.0)
           (-70.0 70.0)
           (-70.0 60.0)
  end
  begin
     id 8 
     name rtibia
     direction -0.34202 -0.939693 0   
     length 7.78969   
     axis 0 0 -20   XYZ
    dof rx
    limits (-10.0 170.0)
 end
 begin
     id 9 
     name rfoot
     direction -0.0859318 -0.236096 0.967923   
     length 2.19143  
     axis -90 -7.62852e-016 -20   XYZ
    dof rx rz
    limits (-45.0 90.0)
           (-20.0 70.0)
  end
  begin
     id 10 
     name rtoes
     direction -1.53538e-011 -4.21989e-011 1   
     length 1.09845   
     axis -90 -7.62852e-016 -20   XYZ
    dof rx
    limits (-90.0 20.0)
  end
  begin
     id 11 
     name lowerback
     direction -0.00762546 0.998978 -0.0445553   
     length 1.98161   
     axis 0 0 0   XYZ
    dof rx ry rz
    limits (-20.0 45.0)
           (-30.0 30.0)
           (-30.0 30.0)
  end
  begin
     id 12 
     name upperback
     direction 0.0422361 0.998867 -0.0219156   
     length 1.97558   
     axis 0 0 0   XYZ
    dof rx ry rz
    limits (-20.0 45.0)
           (-30.0 30.0)
           (-30.0 30.0)
  end
  begin
     id 13 
     name thorax
     direction 0.0442465 0.999021 7.47603e-005   
     length 1.97799   
     axis 0 0 0   XYZ
    dof rx ry rz
    limits (-20.0 45.0)
           (-30.0 30.0)
           (-30.0 30.0)
  end
  begin
     id 14 
     name lowerneck
     direction 0.00312169 0.984641 0.174564   
     length 1.78995   
     axis 0 0 0   XYZ
    dof rx ry rz
    limits (-20.0 45.0)
           (-30.0 30.0)
           (-30.0 30.0)
  end
  begin
     id 15 
     name upperneck
     direction -0.0383028 0.985255 -0.166749   
     length 1.83053   
     axis 0 0 0   XYZ
    dof rx ry rz
    limits (-20.0 45.0)
           (-30.0 30.0)
           (-30.0 30.0)
  end
  begin
     id 16
     name head
     direction -0.0129546 0.997059 -0.0755386  
     length 1.84088  
     axis 0 0 0   XYZ
    dof rx ry rz
    limits (-20.0 45.0)
           (-30.0 30.0)
           (-30.0 30.0)
  end
  begin
     id 17 
     name lclavicle
     direction 0.912857 0.370519 -0.171488  
     length 3.51279  
     axis 0 0 0   XYZ
    dof ry rz
    limits (-20.0 10.0)
           (0.0 20.0)
  end
  begin
     id 18 
     name lhumerus
     direction 1 -4.48962e-011 3.64361e-027   
     length 4.95663   
     axis 180 -30 -90   XYZ
    dof rx ry rz
    limits (-60.0 90.0)
           (-90.0 90.0)
           (-90.0 90.0)
  end
  begin
     id 19
     name lradius
     direction 1 -4.48974e-011 5.97202e-027   
     length 3.38177   
     axis 180 -30 -90   XYZ
    dof rx
    limits (-10.0 170.0)
  end
  begin
     id 20
     name lwrist
     direction 1 -4.4896e-011 9.83288e-027   
     length 1.69088   
     axis -9.31221e-015 90 90   XYZ
    dof ry
    limits (-180.0 0.0)
 end
  begin
     id 21 
     name lhand
     direction 1 -4.4902e-011 1.96551e-026   
     length 0.662909   
     axis -1.25475e-014 90 90   XYZ
    dof rx rz
    limits (-90.0 90.0)
           (-45.0 45.0)
  end
  begin
     id 22 
     name lfingers
     direction 1 -4.48971e-011 3.93277e-026   
     length 0.534454   
     axis -2.50945e-014 90 90   XYZ
    dof rx
    limits (0.0 90.0)
  end
  begin
     id 23
     name lthumb
     direction 0.707107 -6.34933e-011 0.707107   
     length 0.767373   
     axis -90 45 -4.80359e-014   XYZ
    dof rx rz
    limits (-45.0 45.0)
           (-45.0 45.0)
  end
  begin
     id 24 
     name rclavicle
     direction -0.900919 0.395364 -0.178976   
     length 3.40627  
     axis 0 0 0   XYZ 
    dof ry rz
    limits (-10.0 20.0)
           (-20.0 0.0)
  end
  begin
     id 25 
     name rhumerus
     direction -1 -4.48969e-011 1.03875e-027  
     length 5.08365   
     axis 180 30 90   XYZ
    dof rx ry rz
    limits (-90.0 60.0)
           (-90.0 90.0)
           (-90.0 90.0)
  end
  begin
     id 26 
     name rradius
     direction -1 -4.48951e-011 5.02733e-027   
     length 3.35984   
     axis 180 30 90   XYZ
    dof rx
    limits (-10.0 170.0)
  end
  begin
     id 27 
     name rwrist
     direction -1 -4.49011e-011 9.82828e-027   
     length 1.67992   
     axis -9.31221e-015 -90 -90   XYZ
    dof ry
    limits (-180.0 0.0)
  end
  begin
     id 28
     name rhand
     direction -1 -4.48894e-011 1.96774e-026   
     length 0.820764   
     axis -1.25475e-014 -90 -90   XYZ
    dof rx rz
    limits (-90.0 90.0)
           (-45.0 45.0)
  end
  begin
     id 29
     name rfingers
     direction -1 -4.49095e-011 3.92833e-026   
     length 0.661721   
     axis -2.50945e-014 -90 -90   XYZ
    dof rx
    limits (0.0 90.0)
  end
  begin
     id 30
     name rthumb
     direction -0.707107 -6.34881e-011 0.707107   
     length 0.950103   
     axis -90 -45 4.80359e-014   XYZ
    dof rx rz
    limits (-45.0 45.0)
           (-45.0 45.0)
  end
:hierarchy
  begin
    root lhipjoint rhipjoint lowerback
    lhipjoint lfemur
    lfemur ltibia
    ltibia lfoot
    lfoot ltoes
    rhipjoint rfemur
    rfemur rtibia
    rtibia rfoot
    rfoot rtoes
    lowerback upperback
    upperback thorax
    thorax lowerneck lclavicle rclavicle
    lowerneck upperneck
    upperneck head
    lclavicle lhumerus
    lhumerus lradius
    lradius lwrist
    lwrist lhand lthumb
    lhand lfingers
    rclavicle rhumerus
    rhumerus rradius
    rradius rwrist
    rwrist rhand rthumb
    rhand rfingers
  end

#!OML:ASF I:\golf\golf\golf 2\Subject 1\2002-09-07\Subject1.ASF
:FULLY-SPECIFIED
:DEGREES
116
root -7.44525 17.6527 1.52754 -7.19291 63.33 -21.2351
lowerback 2.02124 -2.16068 -11.67
upperback 3.47897 -2.84573 -0.304121
thorax 3.0948 -1.71452 6.18443
lowerneck -10.5852 11.192 3.94348
upperneck 30.1244 18.2826 -6.72015
head 12.8207 7.91316 -0.505821
rclavicle -1.11319e-014 -2.8625e-014
rhumerus -16.5165 0.611126 -97.1925
rradius 60.711
rwrist -62.2149
rhand -55.0335 -9.91973
rfingers 7.12502
rthumb -27.4122 -37.9456
lclavicle -1.11319e-014 -2.8625e-014
lhumerus 58.8634 -77.2832 43.6245
lradius 25.7348
lwrist 19.5822
lhand 14.8908 39.2237
lfingers 7.12502
lthumb -140.251 -115.475
rfemur -33.6407 7.0231 23.2203
rtibia 33.5241
rfoot -9.93012 10.8801
rtoes 12.5537
lfemur -15.234 11.1407 1.16837
ltibia 27.4208
lfoot -13.7918 13.8357
ltoes -18.7248
117
root -7.44547 17.6364 1.57535 -7.61942 62.5176 -21.8288
lowerback 1.75486 -2.56625 -11.573
upperback 3.51345 -3.34838 -0.286654
thorax 3.37509 -1.9793 6.11827
lowerneck -10.4985 11.779 3.83429
upperneck 29.7202 19.1338 -6.87946
head 12.7041 8.26431 -0.424531
rclavicle 1.30403e-013 2.54444e-014
rhumerus -16.4124 0.778501 -96.7915
rradius 62.0201
rwrist -61.6606
rhand -55.5478 -10.3705
rfingers 7.12502
rthumb -27.904 -38.3175
lclavicle 1.30403e-013 2.54444e-014
lhumerus 61.3498 -76.584 41.8233
lradius 25.4495
lwrist 17.5488
lhand 11.4291 36.098
lfingers 7.12502
lthumb -143.52 -117.705
rfemur -33.7012 7.11362 24.0331
rtibia 33.5498
rfoot -9.89953 11.5523
rtoes 13.7504
lfemur -14.8224 11.2626 1.92518
ltibia 27.3304
lfoot -14.0343 14.123
ltoes -17.4248
118
root -7.44422 17.6196 1.62698 -8.65153 61.3586 -22.4928
lowerback 1.98065 -2.7505 -11.4652
upperback 3.66659 -3.61189 -0.272594
thorax 3.45448 -2.11773 6.06956
lowerneck -10.3165 12.3105 3.80292
upperneck 29.3232 19.8966 -7.06064
head 12.578 8.58952 -0.38397
rclavicle 1.43125e-014 -1.27222e-014
rhumerus -16.3406 0.641965 -96.38
rradius 63.3928
rwrist -61.242
rhand -56.4195 -7.97643
rfingers 7.12502
rthumb -28.7371 -35.7851
lclavicle 1.43125e-014 -1.27222e-014
lhumerus 64.5356 -76.0415 39.2958
lradius 25.2344
lwrist 15.6843
lhand 12.5334 35.0972
lfingers 7.12502
lthumb -142.475 -118.976
rfemur -33.122 7.48179 25.0597
rtibia 33.5779
rfoot -10.1111 12.0887
rtoes 13.2152
lfemur -13.5714 11.1364 2.98099
ltibia 27.2103
lfoot -14.8316 14.3072
ltoes -13.2825
119
root -7.44445 17.6089 1.69749 -8.93895 59.95 -22.381
lowerback 2.0544 -2.84311 -11.9612
upperback 3.73232 -3.73691 -0.330401
thorax 3.54388 -2.20035 6.28051
lowerneck -9.89094 12.8119 3.93907
upperneck 28.8421 20.5843 -7.29645
head 12.3925 8.91058 -0.419545
rclavicle 1.01778e-013 -4.77083e-014
rhumerus -16.4219 -0.119149 -96.1457
rradius 64.9184
rwrist -60.6925
rhand -57.509 -4.88839
rfingers 7.12502
rthumb -29.7774 -32.5157
lclavicle 1.01778e-013 -4.77083e-014
lhumerus 67.708 -75.6538 36.634
lradius 25.1324
lwrist 14.3561
lhand 21.4196 36.4894
lfingers 7.12502
lthumb -134.145 -120.356
rfemur -32.4982 8.22003 25.7816
rtibia 33.5628
rfoot -10.298 12.5534
rtoes 12.6402
lfemur -12.1896 11.4207 3.71612
ltibia 27.1844
lfoot -15.4997 14.5389
ltoes -10.7009
120
root -7.44268 17.6051 1.73701 -8.24421 58.9979 -21.7696
lowerback 1.96122 -3.18193 -12.2984
upperback 3.53604 -4.18246 -0.545611
thorax 3.48925 -2.41481 6.22227
lowerneck -9.39462 13.3605 4.11808
upperneck 28.3107 21.3411 -7.58785
head 12.1962 9.26727 -0.476365
rclavicle -1.90833e-014 1.59028e-014
rhumerus -16.5067 -0.794375 -96.0087
rradius 66.3555
rwrist -59.8434
rhand -58.4494 -4.07847
rfingers 7.12502
rthumb -30.6745 -31.5415
lclavicle -1.90833e-014 1.59028e-014
lhumerus 69.5196 -75.1944 35.2319
lradius 25.1588
lwrist 13.8338
lhand 17.814 35.1045
lfingers 7.12502
lthumb -137.507 -120.473
rfemur -32.5678 8.32903 26.0036
rtibia 33.5649
rfoot -10.3103 13.3844
rtoes 12.6411
lfemur -11.7394 11.7139 3.71623
ltibia 27.1469
lfoot -15.2576 15.445
ltoes -12.9823
121
root -7.44141 17.6035 1.75652 -7.67952 58.2836 -21.4487
lowerback 1.9183 -3.61438 -12.3146
upperback 3.31905 -4.76282 -0.728129
thorax 3.38402 -2.68389 6.01785
lowerneck -8.8722 13.907 4.33961
upperneck 27.6698 22.1117 -8.03305
head 11.9867 9.62539 -0.593649
rclavicle -3.4191e-014 5.40694e-014
rhumerus -16.4145 -1.15829 -95.7993
rradius 67.6121
rwrist -58.8444
rhand -58.9967 -1.72604
rfingers 7.12502
rthumb -31.1962 -29.0899
lclavicle -3.4191e-014 5.40694e-014
lhumerus 71.0743 -74.5814 34.1462
lradius 25.2185
lwrist 13.5663
lhand 13.6946 31.636
lfingers 7.12502
lthumb -141.379 -122.737
rfemur -32.8635 8.12088 26.2673
rtibia 33.6305
rfoot -10.2034 14.2937
rtoes 13.1717
lfemur -11.5559 11.7257 3.69119
ltibia 27.0084
lfoot -14.9785 16.4568
ltoes -14.6344
122
root -7.44244 17.5984 1.79069 -7.15394 57.5941 -20.7539
lowerback 2.0874 -3.96314 -12.8158
upperback 3.24419 -5.2493 -0.896264
thorax 3.34217 -2.92783 6.10674
lowerneck -8.38278 14.4034 4.53919
upperneck 27.0305 22.812 -8.48753
head 11.7859 9.95127 -0.718425
rclavicle 6.91771e-014 0
rhumerus -16.1732 -1.50103 -95.4674
rradius 68.8222
rwrist -57.7497
rhand -59.6282 0.925957
rfingers 7.12502
rthumb -31.7979 -26.3203
lclavicle 6.91771e-014 0
lhumerus 72.7496 -73.8992 33.0694
lradius 25.2485
lwrist 13.2775
lhand 12.4622 28.1503
lfingers 7.12502
lthumb -142.542 -125.905
rfemur -32.7593 7.97717 26.3799
rtibia 33.6937
rfoot -10.0706 15.0559
rtoes 13.8376
lfemur -10.9364 11.458 3.58217
ltibia 26.8773
lfoot -15.1507 17.1732
ltoes -14.1732
